<?xml version="1.0" encoding="UTF-8" standalone="no"?>
<!-- Created with Inkscape (http://www.inkscape.org/) -->

<svg
   xmlns:dc="http://purl.org/dc/elements/1.1/"
   xmlns:cc="http://creativecommons.org/ns#"
   xmlns:rdf="http://www.w3.org/1999/02/22-rdf-syntax-ns#"
   xmlns:svg="http://www.w3.org/2000/svg"
   xmlns="http://www.w3.org/2000/svg"
   xmlns:xlink="http://www.w3.org/1999/xlink"
   xmlns:sodipodi="http://sodipodi.sourceforge.net/DTD/sodipodi-0.dtd"
   xmlns:inkscape="http://www.inkscape.org/namespaces/inkscape"
   width="88.486122mm"
   height="15.409528mm"
   viewBox="0 0 88.486122 15.409528"
   id="svg8944"
   version="1.1"
   inkscape:version="0.91+devel+osxmenu r12922"
   sodipodi:docname="nStatistics-banner.svg">
  <defs
     id="defs8946">
    <linearGradient
       gradientTransform="translate(9.5544889,-166.92811)"
       inkscape:collect="always"
       xlink:href="#linearGradient8173"
       id="linearGradient8922"
       x1="73.638084"
       y1="235.5679"
       x2="160.42773"
       y2="235.5679"
       gradientUnits="userSpaceOnUse" />
    <linearGradient
       inkscape:collect="always"
       id="linearGradient8173">
      <stop
         id="stop8177"
         offset="0"
         style="stop-color:#006c35;stop-opacity:1" />
      <stop
         id="stop8175"
         offset="1"
         style="stop-color:#006cea;stop-opacity:1" />
    </linearGradient>
  </defs>
  <sodipodi:namedview
     id="base"
     pagecolor="#ffffff"
     bordercolor="#666666"
     borderopacity="1.0"
     inkscape:pageopacity="0.0"
     inkscape:pageshadow="2"
     inkscape:zoom="3.4685289"
     inkscape:cx="118.20573"
     inkscape:cy="29.120369"
     inkscape:document-units="mm"
     inkscape:current-layer="layer1"
     showgrid="false"
     fit-margin-top="0"
     fit-margin-left="0"
     fit-margin-right="0"
     fit-margin-bottom="0"
     inkscape:window-width="1280"
     inkscape:window-height="751"
     inkscape:window-x="0"
     inkscape:window-y="23"
     inkscape:window-maximized="0" />
  <metadata
     id="metadata8949">
    <rdf:RDF>
      <cc:Work
         rdf:about="">
        <dc:format>image/svg+xml</dc:format>
        <dc:type
           rdf:resource="http://purl.org/dc/dcmitype/StillImage" />
        <dc:title />
      </cc:Work>
    </rdf:RDF>
  </metadata>
  <g
     inkscape:label="Ebene 1"
     inkscape:groupmode="layer"
     id="layer1"
     transform="translate(-44.959319,-40.586902)">
    <rect
       transform="matrix(1,0,-0.21165385,0.97734469,0,0)"
       rx="4.5434055"
       style="opacity:0.76599995;fill:url(#linearGradient8922);fill-opacity:1;stroke:none;stroke-width:0.48833567;stroke-miterlimit:4;stroke-dasharray:none;stroke-opacity:1"
       id="rect8773"
       width="86.78965"
       height="15.766727"
       x="56.265602"
       y="41.527725"
       ry="4.312396" />
    <g
       style="font-style:normal;font-weight:normal;font-size:4.02120543px;line-height:125%;font-family:sans-serif;letter-spacing:0.00814738px;word-spacing:0px;fill:#ffffff;fill-opacity:0.93719806;stroke:none;stroke-width:0.34796342;stroke-linecap:butt;stroke-linejoin:miter;stroke-miterlimit:4;stroke-dasharray:none;stroke-opacity:1"
       aria-label="Statistics"
       id="text8775">
      <path
         d="m 60.155928,54.189335 q -1.194298,0 -2.207642,-0.180954 -0.995248,-0.19905 -1.646683,-0.542863 l 0.597148,-2.80479 q 0.741913,0.380004 1.682875,0.615244 0.959057,0.235241 1.809542,0.235241 0.977153,0 1.429538,-0.162859 0.470481,-0.180954 0.579054,-0.687626 0.0181,-0.07238 0.0181,-0.180955 0,-0.361908 -0.343813,-0.542862 -0.343813,-0.19905 -1.339061,-0.542863 l -0.542863,-0.180954 q -1.284775,-0.452386 -1.900019,-1.06763 -0.597149,-0.63334 -0.597149,-1.610493 0,-0.470481 0.09048,-0.850485 0.380004,-1.755256 1.737161,-2.623836 1.357156,-0.886676 3.87242,-0.886676 0.922867,0 1.90002,0.162859 0.995248,0.144764 1.610492,0.361909 l -0.597149,2.822886 q -1.447634,-0.63334 -2.949554,-0.63334 -0.959057,0 -1.483824,0.144763 -0.506672,0.144764 -0.615245,0.63334 -0.0181,0.05429 -0.0181,0.162859 0,0.307622 0.307622,0.470481 0.325718,0.162859 1.284775,0.452385 l 0.361909,0.108573 q 1.520015,0.452385 2.153355,1.140012 0.651435,0.66953 0.651435,1.646683 0,0.380004 -0.126668,1.013344 -0.361908,1.700969 -1.70097,2.623836 -1.320965,0.904771 -4.017183,0.904771 z"
         style="font-style:italic;font-variant:normal;font-weight:bold;font-stretch:normal;font-size:18.09542274px;font-family:Kanit;-inkscape-font-specification:'Kanit Bold Italic';letter-spacing:0.00814738px;fill:#ffffff;fill-opacity:0.93719806;stroke:none;stroke-width:0.34796342;stroke-miterlimit:4;stroke-dasharray:none;stroke-opacity:1"
         id="path7359" />
      <path
         d="m 69.705354,54.17075 q -1.185293,0 -1.802295,-0.535818 -0.617002,-0.552054 -0.617002,-1.542504 0,-0.373449 0.09742,-0.811845 l 0.584528,-2.711561 -1.006687,0 0.47087,-2.256927 1.006687,0 0.340975,-1.574979 3.198667,-0.73066 -0.487106,2.305639 1.769821,0 -0.584528,2.256927 -1.656163,0 -0.535817,2.484245 q -0.04871,0.211079 -0.04871,0.357211 0,0.308501 0.194843,0.42216 0.211079,0.113658 0.649475,0.113658 0.47087,0 1.006687,-0.162369 l -0.438396,2.029611 q -0.925502,0.357212 -2.143269,0.357212 z"
         style="letter-spacing:0.01140632px;fill:#ffffff;fill-opacity:0.93719806;stroke:none;stroke-width:0.34796342;stroke-miterlimit:4;stroke-dasharray:none;stroke-opacity:1"
         id="path7361" />
      <path
         d="m 75.868259,54.17075 q -1.396372,0 -2.159506,-0.617002 -0.763134,-0.633239 -0.763134,-1.93219 0,-0.600765 0.129895,-1.185293 0.276027,-1.298951 0.957977,-2.256928 0.681949,-0.974213 1.639926,-1.493794 0.974213,-0.535817 2.078322,-0.535817 0.584528,0 1.039161,0.146132 0.454633,0.146132 0.746897,0.389685 l 0.08118,-0.373448 3.052535,0 -1.623689,7.696286 -2.646613,0 -0.03247,-0.600765 q -1.120345,0.763134 -2.500481,0.763134 z m 1.347662,-2.208217 q 0.357212,0 0.698186,-0.113659 0.357212,-0.129895 0.600765,-0.357211 l 0.584529,-2.727798 q -0.357212,-0.405922 -1.039161,-0.405922 -1.41261,0 -1.867243,2.094559 -0.09742,0.405922 -0.09742,0.698186 0,0.438396 0.25979,0.633239 0.25979,0.178606 0.860555,0.178606 z"
         style="font-style:italic;font-variant:normal;font-weight:bold;font-stretch:normal;font-size:16.23689079px;font-family:Kanit;-inkscape-font-specification:'Kanit Bold Italic';letter-spacing:0.00814738px;fill:#ffffff;fill-opacity:0.93719806;stroke:none;stroke-width:0.34796342;stroke-miterlimit:4;stroke-dasharray:none;stroke-opacity:1"
         id="path7363" />
      <path
         d="m 85.771522,54.17075 q -1.185293,0 -1.802295,-0.535818 -0.617002,-0.552054 -0.617002,-1.542504 0,-0.373449 0.09742,-0.811845 l 0.584528,-2.711561 -1.006687,0 0.47087,-2.256927 1.006687,0 0.340975,-1.574979 3.198667,-0.73066 -0.487106,2.305639 1.769821,0 -0.584528,2.256927 -1.656163,0 -0.535818,2.484245 q -0.04871,0.211079 -0.04871,0.357211 0,0.308501 0.194842,0.42216 0.21108,0.113658 0.649476,0.113658 0.47087,0 1.006687,-0.162369 l -0.438396,2.029611 q -0.925503,0.357212 -2.143269,0.357212 z"
         style="font-style:italic;font-variant:normal;font-weight:bold;font-stretch:normal;font-size:16.23689079px;font-family:Kanit;-inkscape-font-specification:'Kanit Bold Italic';letter-spacing:0.00814738px;fill:#ffffff;fill-opacity:0.93719806;stroke:none;stroke-width:0.34796342;stroke-miterlimit:4;stroke-dasharray:none;stroke-opacity:1"
         id="path7365" />
      <path
         d="m 91.914929,43.080953 3.296088,0 -0.470869,2.208218 -3.296089,0 0.47087,-2.208218 z m -0.925503,5.455596 -1.120346,0 0.73066,-2.224454 3.913091,0 -1.623689,7.696286 -3.052535,0 1.152819,-5.471832 z"
         style="font-style:italic;font-variant:normal;font-weight:bold;font-stretch:normal;font-size:16.23689079px;font-family:Kanit;-inkscape-font-specification:'Kanit Bold Italic';letter-spacing:0.00814738px;fill:#ffffff;fill-opacity:0.93719806;stroke:none;stroke-width:0.34796342;stroke-miterlimit:4;stroke-dasharray:none;stroke-opacity:1"
         id="path7367" />
      <path
         d="m 97.324379,54.17075 q -0.957977,0 -1.802295,-0.146132 -0.844318,-0.129895 -1.315188,-0.340975 l 0.454633,-2.19198 q 0.503343,0.25979 1.234004,0.405922 0.746897,0.146132 1.347662,0.146132 0.714423,0 0.957976,-0.03247 0.243553,-0.04871 0.292264,-0.276027 0.04871,-0.178606 -0.162369,-0.292264 -0.211079,-0.113658 -0.779371,-0.292264 l -0.763133,-0.25979 q -0.844319,-0.324738 -1.250241,-0.746897 -0.405922,-0.422159 -0.405922,-1.055398 0,-0.276027 0.06495,-0.535817 0.243554,-1.20153 1.266478,-1.802295 1.022924,-0.600765 3.003825,-0.600765 0.714421,0 1.493791,0.113658 0.77937,0.113658 1.21777,0.25979 l -0.45463,2.14327 q -0.42216,-0.194843 -0.97422,-0.292264 -0.55205,-0.113658 -1.039158,-0.113658 -0.649476,0 -1.006687,0.06495 -0.357212,0.04871 -0.405923,0.25979 -0.03247,0.178606 0.162369,0.276028 0.194843,0.09742 0.714424,0.243553 l 0.681949,0.211079 q 0.974216,0.308501 1.396376,0.746897 0.43839,0.42216 0.43839,1.039161 0,0.243554 -0.0812,0.617002 -0.25979,1.217767 -1.28272,1.834769 -1.02292,0.617002 -3.003821,0.617002 z"
         style="font-style:italic;font-variant:normal;font-weight:bold;font-stretch:normal;font-size:16.23689079px;font-family:Kanit;-inkscape-font-specification:'Kanit Bold Italic';letter-spacing:0.00814738px;fill:#ffffff;fill-opacity:0.93719806;stroke:none;stroke-width:0.34796342;stroke-miterlimit:4;stroke-dasharray:none;stroke-opacity:1"
         id="path7369" />
      <path
         d="m 105.26755,54.17075 q -1.18529,0 -1.8023,-0.535818 -0.617,-0.552054 -0.617,-1.542504 0,-0.373449 0.0974,-0.811845 l 0.58453,-2.711561 -1.00669,0 0.47087,-2.256927 1.00669,0 0.34098,-1.574979 3.19866,-0.73066 -0.4871,2.305639 1.76982,0 -0.58453,2.256927 -1.65616,0 -0.53582,2.484245 q -0.0487,0.211079 -0.0487,0.357211 0,0.308501 0.19484,0.42216 0.21108,0.113658 0.64948,0.113658 0.47087,0 1.00668,-0.162369 l -0.43839,2.029611 q -0.9255,0.357212 -2.14327,0.357212 z"
         style="font-style:italic;font-variant:normal;font-weight:bold;font-stretch:normal;font-size:16.23689079px;font-family:Kanit;-inkscape-font-specification:'Kanit Bold Italic';letter-spacing:0.00814738px;fill:#ffffff;fill-opacity:0.93719806;stroke:none;stroke-width:0.34796342;stroke-miterlimit:4;stroke-dasharray:none;stroke-opacity:1"
         id="path7371" />
      <path
         d="m 111.41096,43.080953 3.29609,0 -0.47087,2.208218 -3.29609,0 0.47087,-2.208218 z m -0.92551,5.455596 -1.12034,0 0.73066,-2.224454 3.91309,0 -1.62369,7.696286 -3.05253,0 1.15281,-5.471832 z"
         style="font-style:italic;font-variant:normal;font-weight:bold;font-stretch:normal;font-size:16.23689079px;font-family:Kanit;-inkscape-font-specification:'Kanit Bold Italic';letter-spacing:0.00814738px;fill:#ffffff;fill-opacity:0.93719806;stroke:none;stroke-width:0.34796342;stroke-miterlimit:4;stroke-dasharray:none;stroke-opacity:1"
         id="path7373" />
      <path
         d="m 118.02194,54.17075 q -1.70488,0 -2.74404,-0.779371 -1.03916,-0.779371 -1.03916,-2.256928 0,-0.47087 0.11366,-0.974213 0.86056,-4.010512 5.39065,-4.010512 0.87679,0 1.52627,0.129895 0.64947,0.113658 1.20153,0.405922 l -0.45464,2.14327 q -0.86055,-0.454633 -2.07832,-0.454633 -1.07163,0 -1.6724,0.405922 -0.60076,0.405922 -0.79561,1.380136 -0.0649,0.276027 -0.0649,0.584528 0,0.633239 0.42216,0.925503 0.43839,0.276027 1.34766,0.276027 1.15282,0 2.32187,-0.535818 l -0.4871,2.240691 q -1.26648,0.519581 -2.98759,0.519581 z"
         style="letter-spacing:0.04888424px;fill:#ffffff;fill-opacity:0.93719806;stroke:none;stroke-width:0.34796342;stroke-miterlimit:4;stroke-dasharray:none;stroke-opacity:1"
         id="path7375" />
      <path
         d="m 125.08287,54.17075 q -0.95798,0 -1.80229,-0.146132 -0.84432,-0.129895 -1.31519,-0.340975 l 0.45463,-2.19198 q 0.50334,0.25979 1.234,0.405922 0.7469,0.146132 1.34767,0.146132 0.71442,0 0.95797,-0.03247 0.24356,-0.04871 0.29227,-0.276027 0.0487,-0.178606 -0.16237,-0.292264 -0.21108,-0.113658 -0.77937,-0.292264 l -0.76314,-0.25979 q -0.84432,-0.324738 -1.25024,-0.746897 -0.40592,-0.422159 -0.40592,-1.055398 0,-0.276027 0.0649,-0.535817 0.24355,-1.20153 1.26648,-1.802295 1.02292,-0.600765 3.00382,-0.600765 0.71442,0 1.49379,0.113658 0.77937,0.113658 1.21777,0.25979 l -0.45463,2.14327 q -0.42216,-0.194843 -0.97422,-0.292264 -0.55205,-0.113658 -1.03916,-0.113658 -0.64947,0 -1.00668,0.06495 -0.35722,0.04871 -0.40593,0.25979 -0.0325,0.178606 0.16237,0.276028 0.19485,0.09742 0.71443,0.243553 l 0.68195,0.211079 q 0.97421,0.308501 1.39637,0.746897 0.43839,0.42216 0.43839,1.039161 0,0.243554 -0.0812,0.617002 -0.25979,1.217767 -1.28271,1.834769 -1.02293,0.617002 -3.00383,0.617002 z"
         style="font-style:italic;font-variant:normal;font-weight:bold;font-stretch:normal;font-size:16.23689079px;font-family:Kanit;-inkscape-font-specification:'Kanit Bold Italic';letter-spacing:0.00814738px;fill:#ffffff;fill-opacity:0.93719806;stroke:none;stroke-width:0.34796342;stroke-miterlimit:4;stroke-dasharray:none;stroke-opacity:1"
         id="path7377" />
    </g>
    <g
       transform="matrix(0.64674255,0,0,0.61586446,22.102611,-24.786493)"
       id="g8785"
       aria-label="n"
       style="font-style:normal;font-weight:normal;font-size:6.90818119px;line-height:125%;font-family:sans-serif;letter-spacing:0px;word-spacing:0px;fill:#ffffff;fill-opacity:0.70048308;stroke:none;stroke-width:0.25818995px;stroke-linecap:butt;stroke-linejoin:miter;stroke-opacity:1">
      <path
         sodipodi:nodetypes="ccscccccccscccccccccsscccsccccccccccccccccsscccccccccccscccc"
         inkscape:connector-curvature="0"
         id="path8787"
         style="font-style:normal;font-variant:normal;font-weight:normal;font-stretch:normal;font-size:31.08681679px;font-family:Satisfy;-inkscape-font-specification:Satisfy;fill:#ffffff;fill-opacity:0.70048308;stroke:none;stroke-width:0.25818995px;stroke-opacity:1"
         d="m 48.150291,127.90398 c -0.465493,0 -0.870269,-0.0911 -1.214329,-0.27323 -0.323821,-0.16191 -0.586925,-0.38453 -0.789314,-0.66788 -0.202388,-0.28334 -0.33394,-0.60716 -0.394656,-0.97146 -0.06072,-0.38454 -0.04048,-0.78932 0.06072,-1.21433 0.06071,-0.28335 0.161907,-0.65777 0.303582,-1.12326 0.141672,-0.48573 0.283344,-1.00181 0.425015,-1.54826 0.161911,-0.56669 0.303582,-1.12326 0.425015,-1.66971 0.141672,-0.56669 0.232747,-1.07266 0.273224,-1.51791 0.04048,-0.46549 0.02024,-0.83991 -0.06072,-1.12325 -0.08096,-0.30359 -0.252985,-0.45538 -0.51609,-0.45538 -0.323821,0 -0.657761,0.11132 -1.001821,0.33395 -0.34406,0.20239 -0.698239,0.48573 -1.062538,0.85003 -0.34406,0.36429 -0.698239,0.78931 -1.062537,1.27504 -0.34406,0.46549 -0.68812,0.95122 -1.03218,1.45719 -0.182149,0.68812 -0.33394,1.29529 -0.455373,1.8215 l -0.333941,1.39648 c -0.08096,0.40477 -0.16191,0.76907 -0.242865,1.09289 -0.08095,0.30359 -0.151791,0.59705 -0.212508,0.88039 -0.06071,0.20239 -0.242863,0.40477 -0.546448,0.60716 -0.303582,0.18215 -0.627403,0.33395 -0.971463,0.45538 -0.34406,0.12143 -0.637523,0.18215 -0.880388,0.18215 -0.263105,0 -0.374418,-0.0911 -0.333941,-0.27323 0.02024,-0.12143 0.09108,-0.39466 0.212508,-0.81967 0.101194,-0.42501 0.232746,-0.92086 0.394657,-1.48755 0.141671,-0.58693 0.293462,-1.20421 0.455373,-1.85185 0.161911,-0.64765 0.313702,-1.26493 0.455373,-1.85185 0.101194,-0.46549 0.212508,-0.98158 0.333941,-1.54827 0.101194,-0.48573 0.222627,-1.05242 0.364298,-1.70006 0.161911,-0.64765 0.34406,-1.35601 0.546448,-2.12508 0.141672,-0.12143 0.283344,-0.21251 0.425015,-0.27322 0.161911,-0.081 0.323821,-0.14168 0.485732,-0.18215 0.161911,-0.0607 0.333941,-0.10121 0.51609,-0.12143 0.16191,0 0.32382,0.0101 0.485731,0.0303 0.141672,0.0203 0.283344,0.0607 0.425015,0.12144 0.161911,0.0405 0.303582,0.1113 0.425015,0.2125 -0.06071,0.14167 -0.131549,0.34406 -0.212507,0.60717 -0.08096,0.24287 -0.161911,0.50597 -0.242866,0.78931 -0.08096,0.32382 -0.182149,0.65776 -0.303582,1.00182 0.263105,-0.36429 0.556567,-0.72859 0.880388,-1.09289 0.34406,-0.38454 0.708359,-0.7286 1.092896,-1.03218 0.404776,-0.30359 0.829791,-0.54645 1.275045,-0.7286 0.445254,-0.20239 0.900627,-0.30358 1.36612,-0.30358 0.384537,0 0.728597,0.11131 1.03218,0.33394 0.303582,0.22263 0.536328,0.53633 0.698239,0.9411 0.182149,0.38454 0.283343,0.85003 0.303582,1.39648 0.04048,0.54645 -0.03036,1.14349 -0.212508,1.79114 l -0.33394,1.33576 c -0.101194,0.42501 -0.232746,0.93098 -0.394657,1.51791 -0.141672,0.56669 -0.323821,1.19409 -0.546448,1.88221 -0.121433,0.44525 -0.17203,0.82979 -0.151791,1.15361 0.04048,0.32382 0.242868,0.48573 0.607164,0.48573 1.025036,-0.27482 2.021362,-0.99196 2.563599,-1.83199 0.182149,-0.2631 0.354178,-0.43513 0.516089,-0.51609 0.161911,-0.081 0.283344,-0.0911 0.364299,-0.0304 0.101194,0.0607 0.151791,0.2024 0.151791,0.42502 0,0.20238 -0.08095,0.46549 -0.242866,0.78931 -0.673814,1.24778 -1.526248,2.11712 -2.715389,2.74274 -0.485731,0.28335 -0.951224,0.42502 -1.396478,0.42502 z" />
    </g>
  </g>
</svg>
